<svg width="19" height="18" viewBox="0 0 19 18" fill="none" xmlns="http://www.w3.org/2000/svg">
<g id="Icon">
<path id="Vector" d="M8.75 7.50009V13.5001M8.75 10.1251C8.75 9.4289 9.02656 8.76122 9.51884 8.26893C10.0111 7.77665 10.6788 7.50009 11.375 7.50009C12.0712 7.50009 12.7389 7.77665 13.2312 8.26893C13.7234 8.76122 14 9.4289 14 10.1251V13.5001M5.75 7.50009V13.5001M2 0.75H17C17.4142 0.75 17.75 1.08579 17.75 1.5V16.5C17.75 16.9142 17.4142 17.25 17 17.25H2C1.58579 17.25 1.25 16.9142 1.25 16.5V1.5C1.25 1.08579 1.58579 0.75 2 0.75Z" stroke="#FFFBFB" stroke-width="1.5" stroke-linecap="round" stroke-linejoin="round"/>
<path id="Vector_2" d="M5.75 5.625C6.37132 5.625 6.875 5.12132 6.875 4.5C6.875 3.87868 6.37132 3.375 5.75 3.375C5.12868 3.375 4.625 3.87868 4.625 4.5C4.625 5.12132 5.12868 5.625 5.75 5.625Z" fill="#FFFBFB"/>
</g>
</svg>
