<svg width="19" height="21" viewBox="0 0 19 21" fill="none" xmlns="http://www.w3.org/2000/svg">
<path d="M13.625 19.75C13.0283 19.75 12.456 19.5129 12.034 19.091C11.6121 18.669 11.375 18.0967 11.375 17.5V13M11.75 13H13.25C13.8467 13 14.419 13.2371 14.841 13.659C15.2629 14.081 15.5 14.6533 15.5 15.25V16C15.5 16.5967 15.7371 17.169 16.159 17.591C16.581 18.0129 17.1533 18.25 17.75 18.25M11.75 13C12.9435 13 14.0881 12.5259 14.932 11.682C15.7759 10.8381 16.25 9.69347 16.25 8.5V7.75C16.2515 6.83554 15.973 5.94253 15.452 5.19098C15.7143 4.5124 15.8211 3.78364 15.7645 3.05835C15.7079 2.33306 15.4894 1.62968 15.125 1C14.3063 0.999534 13.5006 1.20543 12.7825 1.59868C12.0644 1.99192 11.457 2.55993 11.0164 3.25L7.98356 3.24989C7.54298 2.55981 6.93558 1.99192 6.21747 1.59868C5.49937 1.20543 4.69373 0.999534 3.875 1C3.51065 1.62968 3.29213 2.33306 3.23553 3.05835C3.17894 3.78364 3.2857 4.5124 3.54797 5.19098C3.027 5.94253 2.74853 6.83554 2.75 7.75V8.5C2.75 9.69347 3.22411 10.8381 4.06802 11.682C4.91193 12.5259 6.05653 13 7.25 13M11.75 13H7.25M5.375 19.75C5.97174 19.75 6.54403 19.5129 6.96599 19.091C7.38795 18.669 7.625 18.0967 7.625 17.5V13M7.25 13H5.75C5.15326 13 4.58097 13.2371 4.15901 13.659C3.73705 14.081 3.5 14.6533 3.5 15.25V16C3.5 16.5967 3.26295 17.169 2.84099 17.591C2.41903 18.0129 1.84674 18.25 1.25 18.25" stroke="#FFFBFB" stroke-width="1.5" stroke-linecap="round" stroke-linejoin="round"/>
</svg>
